ModelForces
version=1
nRows=4
nColumns=157
inDegrees=no

This file contains the forces exerted on a model during a simulation.

A force is a generalized force, meaning that it can be either a force (N) or a torque (Nm).

Units are S.I. units (second, meters, Newtons, ...)
Angles are in degrees.

endheader
time	glut_med1_r	glut_med2_r	glut_med3_r	glut_min1_r	glut_min2_r	glut_min3_r	semimem_r	semiten_r	bifemlh_r	bifemsh_r	sar_r	add_long_r	add_brev_r	add_mag1_r	add_mag2_r	add_mag3_r	tfl_r	pect_r	grac_r	glut_max1_r	glut_max2_r	glut_max3_r	iliacus_r	psoas_r	quad_fem_r	gem_r	peri_r	rect_fem_r	vas_med_r	vas_int_r	vas_lat_r	med_gas_r	lat_gas_r	soleus_r	tib_post_r	flex_dig_r	flex_hal_r	tib_ant_r	per_brev_r	per_long_r	per_tert_r	ext_dig_r	ext_hal_r	glut_med1_l	glut_med2_l	glut_med3_l	glut_min1_l	glut_min2_l	glut_min3_l	semimem_l	semiten_l	bifemlh_l	bifemsh_l	sar_l	add_long_l	add_brev_l	add_mag1_l	add_mag2_l	add_mag3_l	tfl_l	pect_l	grac_l	glut_max1_l	glut_max2_l	glut_max3_l	iliacus_l	psoas_l	quad_fem_l	gem_l	peri_l	rect_fem_l	vas_med_l	vas_int_l	vas_lat_l	med_gas_l	lat_gas_l	soleus_l	tib_post_l	flex_dig_l	flex_hal_l	tib_ant_l	per_brev_l	per_long_l	per_tert_l	ext_dig_l	ext_hal_l	ercspn_r	ercspn_l	intobl_r	intobl_l	extobl_r	extobl_l	femur_lat_meniscii_r.femur_lat_r.force.X	femur_lat_meniscii_r.femur_lat_r.force.Y	femur_lat_meniscii_r.femur_lat_r.force.Z	femur_lat_meniscii_r.femur_lat_r.torque.X	femur_lat_meniscii_r.femur_lat_r.torque.Y	femur_lat_meniscii_r.femur_lat_r.torque.Z	femur_lat_meniscii_r.meniscus_lat_r.force.X	femur_lat_meniscii_r.meniscus_lat_r.force.Y	femur_lat_meniscii_r.meniscus_lat_r.force.Z	femur_lat_meniscii_r.meniscus_lat_r.torque.X	femur_lat_meniscii_r.meniscus_lat_r.torque.Y	femur_lat_meniscii_r.meniscus_lat_r.torque.Z	femur_med_meniscii_r.femur_med_r.force.X	femur_med_meniscii_r.femur_med_r.force.Y	femur_med_meniscii_r.femur_med_r.force.Z	femur_med_meniscii_r.femur_med_r.torque.X	femur_med_meniscii_r.femur_med_r.torque.Y	femur_med_meniscii_r.femur_med_r.torque.Z	femur_med_meniscii_r.meniscus_med_r.force.X	femur_med_meniscii_r.meniscus_med_r.force.Y	femur_med_meniscii_r.meniscus_med_r.force.Z	femur_med_meniscii_r.meniscus_med_r.torque.X	femur_med_meniscii_r.meniscus_med_r.torque.Y	femur_med_meniscii_r.meniscus_med_r.torque.Z	femur_med_tibia_r.tibia_upper_r.force.X	femur_med_tibia_r.tibia_upper_r.force.Y	femur_med_tibia_r.tibia_upper_r.force.Z	femur_med_tibia_r.tibia_upper_r.torque.X	femur_med_tibia_r.tibia_upper_r.torque.Y	femur_med_tibia_r.tibia_upper_r.torque.Z	femur_med_tibia_r.femur_med_r.force.X	femur_med_tibia_r.femur_med_r.force.Y	femur_med_tibia_r.femur_med_r.force.Z	femur_med_tibia_r.femur_med_r.torque.X	femur_med_tibia_r.femur_med_r.torque.Y	femur_med_tibia_r.femur_med_r.torque.Z	femur_lat_tibia_r.tibia_upper_r.force.X	femur_lat_tibia_r.tibia_upper_r.force.Y	femur_lat_tibia_r.tibia_upper_r.force.Z	femur_lat_tibia_r.tibia_upper_r.torque.X	femur_lat_tibia_r.tibia_upper_r.torque.Y	femur_lat_tibia_r.tibia_upper_r.torque.Z	femur_lat_tibia_r.femur_lat_r.force.X	femur_lat_tibia_r.femur_lat_r.force.Y	femur_lat_tibia_r.femur_lat_r.force.Z	femur_lat_tibia_r.femur_lat_r.torque.X	femur_lat_tibia_r.femur_lat_r.torque.Y	femur_lat_tibia_r.femur_lat_r.torque.Z	aACL_R	pACL_R	aPCL_R	pPCL_R	aMCL_R	mMCL_R	pMCL_R	aLCL_R	mLCL_R	pLCL_R	ground_prescribedForce_fx	ground_prescribedForce_fy	ground_prescribedForce_fz	ground_prescribedForce_px	ground_prescribedForce_py	ground_prescribedForce_pz
      0.00000000	     37.33894313	     44.70399505	    157.75619302	     12.85825756	     14.21116019	     20.58409858	    604.44850736	    160.52308938	    471.78111018	     36.02754664	      6.22579910	     23.22453342	     21.35608526	     31.15902669	     26.38466437	     95.57141417	      0.00000000	      8.17970477	      8.58951497	     27.14587737	     40.82397318	     74.43042271	     25.47372388	     23.74850419	    197.67284415	     40.83182119	     83.88942583	     11.17960646	     32.38176469	     32.82510377	     40.14722941	     67.39492298	     31.74693446	    152.72720615	     92.44658902	     14.93332009	     15.26895791	     41.82851940	     21.62523106	     46.40594865	      8.86060096	     25.04818486	      7.96045570	     37.48087652	     28.28714471	     30.25598133	     13.28977762	     14.47626353	     15.91713841	     42.06683902	     20.39635155	     37.67631238	     36.01822118	      7.59254209	     27.93927808	     20.68957741	     14.51222487	     12.16230296	     19.66717628	     12.58139899	     11.16605282	      7.78214370	     18.12681708	     27.55933735	     20.56469162	     63.94906620	     55.74758807	     18.09791099	      9.16719286	     20.03897647	     52.59637061	     32.48786114	     37.22481259	     39.87514307	     67.71424671	     31.64857027	    152.72720615	     92.44658902	     14.93332009	     15.26895791	     41.82851940	     21.62523106	     46.40594865	      8.86060096	     25.04818486	      7.96045570	    124.99446086	    124.99446086	     44.97041513	     44.97041513	     60.98287244	     60.98287244	     -2.83278202	      1.31825523	      0.02465113	     -0.03481711	     -0.08384167	      0.55344215	      2.83278202	     -1.31825523	     -0.02465113	      0.04172893	      0.08919565	     -0.04548271	    -36.44378577	      0.74545501	      2.98688013	      0.06562724	     -0.46275247	      0.90769413	     36.44378577	     -0.74545501	     -2.98688013	     -0.06137499	     -0.49642940	     -0.61642194	      0.00000000	      0.00000000	      0.00000000	      0.00000000	      0.00000000	      0.00000000	      0.00000000	      0.00000000	      0.00000000	      0.00000000	      0.00000000	      0.00000000	      0.00000000	      0.00000000	      0.00000000	      0.00000000	      0.00000000	      0.00000000	      0.00000000	      0.00000000	      0.00000000	      0.00000000	      0.00000000	      0.00000000	     17.58855542	     35.98624740	      0.00000000	      0.00000000	      0.00000000	      4.34794595	     16.58356773	      1.86146449	      0.00000000	      2.98101398	      0.00000000	      0.00000000	      0.00000000	      0.00000000	      0.00000000	      0.00000000
      0.00084354	     37.33170430	     44.68696722	    157.71793357	     12.84394445	     14.20306445	     20.58017864	    596.79009403	    161.98683365	    468.52574676	     37.93910451	      8.61808278	     23.21589548	     21.32149658	     31.14827314	     26.37817811	     95.56065912	      0.00000000	      8.17229207	     10.00687505	     27.13740815	     40.81123564	     74.41416397	     25.46452803	     23.74268926	    197.62948810	     40.82666676	     83.88523466	      9.86421383	     26.94693496	     27.46243027	     34.19513363	     64.02963174	     30.18600391	    147.61960196	     91.86145514	     14.93299038	     15.22258022	     43.27933407	     21.50680781	     46.18717151	      9.29002093	     25.43275213	      8.09913795	     37.47361891	     28.27505924	     30.24519320	     13.27515922	     14.46806122	     15.91390624	     42.06360341	     20.39197612	     37.67269931	     35.99721515	      7.58261780	     27.92947820	     20.65582437	     14.50609385	     12.15863488	     19.66415846	     12.58064193	     11.15684931	      7.77639976	     18.12037620	     27.54970034	     20.55864077	     63.93245395	     55.73802387	     18.08702901	      9.16570118	     20.03766914	     52.59089747	     32.47989824	     37.21691732	     39.86710852	     67.71106336	     31.64705590	    152.71730393	     92.44409358	     14.93438566	     15.26984014	     41.82336568	     21.62338243	     46.40410244	      8.85864651	     25.04373287	      7.95865298	    124.86678518	    124.86678518	     44.95826373	     44.95826373	     60.96973406	     60.96973406	    -99.05863181	     22.69345501	     -1.50390925	     -0.62800066	     -1.97253903	      9.91375619	     99.05863181	    -22.69345501	      1.50390925	      0.74639351	      3.06907738	     -1.16561508	   -421.15350238	     40.10939618	     35.13008145	      1.40011054	     -5.69719058	     22.77876069	    421.15350238	    -40.10939618	    -35.13008145	     -1.18647966	     -5.62698938	     -7.28840618	      0.00000000	      0.00000000	      0.00000000	      0.00000000	      0.00000000	      0.00000000	      0.00000000	      0.00000000	      0.00000000	      0.00000000	      0.00000000	      0.00000000	      0.00000000	      0.00000000	      0.00000000	      0.00000000	      0.00000000	      0.00000000	      0.00000000	      0.00000000	      0.00000000	      0.00000000	      0.00000000	      0.00000000	    -50.83675845	    -36.72541117	      0.00000000	      0.00000000	      0.00000000	   -120.98286307	   -109.37032852	   -150.52911021	      0.00000000	   -152.24827493	      0.00000000	      0.00000000	      0.00000000	      0.00000000	      0.00000000	      0.00000000
      0.00168709	     37.31013243	     44.63836051	    157.61954986	     12.80507698	     14.17982615	     20.56856221	    590.52855070	    166.88726828	    468.45262374	     46.48402893	     13.87887122	     23.19060764	     21.23241380	     31.11750126	     26.35923970	     95.52983137	      0.00000000	      8.15173075	     13.72395494	     27.11246348	     40.77371724	     74.36808384	     25.43757930	     23.72545135	    197.54191688	     40.81232391	     83.87283744	      7.88585794	     19.28743647	     19.82531486	     25.42456544	     59.02448430	     27.88960769	    137.80205580	     90.64932694	     14.95994651	     15.15673161	     46.23120627	     21.29801950	     45.77536690	     10.17902025	     26.15738490	      8.35337164	     37.45199048	     28.23986955	     30.21355856	     13.23540678	     14.44453839	     15.90428248	     42.05385054	     20.37896270	     37.66182817	     35.93700284	      7.55620535	     27.90072669	     20.56900473	     14.48823538	     12.14782105	     19.65512972	     12.57835761	     11.13110676	      7.76019133	     18.10148954	     27.52142545	     20.54078906	     63.88355408	     55.70947148	     18.05589406	      9.16125224	     20.03372346	     52.57444210	     32.45629225	     37.19343485	     39.84318787	     67.70143852	     31.64247745	    152.68741654	     92.43654031	     14.93755302	     15.27245187	     41.80789968	     21.61781363	     46.39851578	      8.85284026	     25.03042422	      7.95327544	    124.51676969	    124.51676969	     44.92232221	     44.92232221	     60.93100204	     60.93100204	   -415.09927551	     64.17207519	     -3.72962326	     -1.79012624	     -9.30089549	     29.10582391	    415.09927551	    -64.17207519	      3.72962326	      2.12253032	     12.88891741	     -4.36602816	  -1083.65610837	    106.66460574	     87.16061945	      3.60512202	    -13.56817527	     59.47999632	   1083.65610837	   -106.66460574	    -87.16061945	     -3.04253635	    -14.35337134	    -18.31587678	      0.00000000	      0.00000000	      0.00000000	      0.00000000	      0.00000000	      0.00000000	      0.00000000	      0.00000000	      0.00000000	      0.00000000	      0.00000000	      0.00000000	      0.00000000	      0.00000000	      0.00000000	      0.00000000	      0.00000000	      0.00000000	      0.00000000	      0.00000000	      0.00000000	      0.00000000	      0.00000000	      0.00000000	    -52.84773134	    -42.01720610	      0.00000000	      0.00000000	      0.00000000	   -109.83449003	    -99.93206543	   -130.98761388	      0.00000000	   -133.75083022	      0.00000000	      0.00000000	      0.00000000	      0.00000000	      0.00000000	      0.00000000
      0.00253063	     37.27447652	     44.56180367	    157.48050984	     12.74706742	     14.14300745	     20.54948326	    598.57707657	    176.69907752	    478.39984782	     67.23334880	     21.75346683	     23.14964708	     21.10641391	     31.06890318	     26.32865221	     95.48104392	      0.00000000	      8.12034296	     20.33999225	     27.07178131	     40.71252512	     74.29606108	     25.39387547	     23.69712816	    197.44067799	     40.79034347	     83.85251559	      6.93365242	     15.79134904	     16.27893269	     21.07824280	     57.24503658	     27.11352777	    128.84926636	     89.47116103	     15.04737429	     15.15184302	     49.11772653	     21.09966180	     45.37878642	     11.02302248	     26.74890111	      8.55115652	     37.41624007	     28.18321872	     30.16222345	     13.17598939	     14.40730614	     15.88839115	     42.03751584	     20.35750145	     37.64365813	     35.84174821	      7.51759716	     27.85404256	     20.44635889	     14.45947271	     12.13016552	     19.64013813	     12.57452715	     11.09145772	      7.73498806	     18.07084042	     27.47551175	     20.51161847	     63.80385305	     55.66218083	     18.00674017	      9.15389149	     20.02710514	     52.54696320	     32.41750538	     37.15470595	     39.80369009	     67.68526061	     31.63478226	    152.63728158	     92.42382801	     14.94276419	     15.27672696	     41.78212897	     21.60849341	     46.38911643	      8.84327736	     25.00836309	      7.94438389	    123.98913538	    123.98913538	     44.86342270	     44.86342270	     60.86776423	     60.86776423	   -503.04743117	     60.84450087	     -4.05545489	     -1.70920081	    -11.37987840	     28.57504796	    503.04743117	    -60.84450087	      4.05545489	      2.02227545	     15.53155298	     -5.12140868	  -1098.17328675	     86.84698776	     83.60756686	      3.14008732	    -11.91480378	     51.64856244	   1098.17328675	    -86.84698776	    -83.60756686	     -2.68506914	    -14.59296783	    -18.13713479	      0.00000000	      0.00000000	      0.00000000	      0.00000000	      0.00000000	      0.00000000	      0.00000000	      0.00000000	      0.00000000	      0.00000000	      0.00000000	      0.00000000	      0.00000000	      0.00000000	      0.00000000	      0.00000000	      0.00000000	      0.00000000	      0.00000000	      0.00000000	      0.00000000	      0.00000000	      0.00000000	      0.00000000	    -27.67300947	    -18.18331023	      0.00000000	      0.00000000	      0.00000000	    -57.99100899	    -49.39908932	    -67.39471178	      0.00000000	    -70.12825622	      0.00000000	      0.00000000	      0.00000000	      0.00000000	      0.00000000	      0.00000000
